<svg width="769.48pt" height="232pt" preserveAspectRatio="xMidYMid" version="1.0" viewBox="0 0 769.48 232" xmlns="http://www.w3.org/2000/svg">
 <g transform="matrix(.1 0 0 -.1 -40.018 555.84)">
  <g transform="translate(-638.14 -3945.8)" fill="#ffffff">
   <g transform="translate(-3411.7 5384.2)" fill="#ffffff">
    <path d="m4450 3890v-230h1270v-1860h460v2320h-1730z"/>
    <path d="m4450 2455v-645h1030v300h-720v690h720v300h-1030z"/>
   </g>
   <g transform="scale(1,-1)" stroke-width="97.323" aria-label="ANDERSON
CUSTÓDIO">
    <path d="m3489.6-8732.9h-243.16l-43.721 179.08h-205.43l253.94-830.1h238.37l253.94 830.1h-210.22zm-212.02-142.54h179.68l-89.838-367.14zm869.63 321.62-218.6-667.79q5.3902 35.336 12.577 91.036 7.187 55.1 11.978 122.78 5.3903 67.678 5.3903 140.75v313.23h-167.1v-830.1h244.96l212.02 664.2q-9.5827-56.897-19.764-145.54-10.182-88.64-10.182-200.64v-318.03h167.1v830.1zm988.81-419.24q0 126.37-33.539 208.42-32.94 82.052-89.838 128.17-56.897 45.518-129.37 64.084-71.87 18.566-149.13 18.566h-224v-830.1h209.62q79.656 0 153.92 16.77 74.865 16.171 133.56 60.491 59.293 43.721 94.03 124.58 34.737 80.255 34.737 209.02zm-203.63 0q0-112-24.556-169.49-23.957-57.496-65.881-77.859-41.325-20.962-93.431-20.962h-41.924v545.61h41.924q54.502 0 95.827-23.358 41.325-23.957 64.683-84.447t23.358-169.49zm542.02-270.71v199.44h287.48v137.75h-287.48v212.02h346.77v140.75h-543.22v-830.1h542.62l-19.764 140.15zm1083.4 112q0 89.239-48.512 144.94-48.512 55.1-117.99 82.651l217.41 350.37h-222.2l-179.68-317.43h-55.699v317.43h-196.45v-830.1h261.13q169.49 0 255.74 61.689 86.244 61.688 86.244 190.46zm-202.43 0q0-59.892-35.336-86.843-34.737-27.55-103.61-27.55h-65.282v240.17h73.068q64.084 0 97.624-29.946 33.539-29.946 33.539-95.827zm928.92 335.39q0 77.26-40.726 136.55-40.128 59.293-115.59 92.832-75.464 33.539-181.47 33.539-117.39 0-197.04-34.138-79.057-34.737-131.16-85.645l99.42-110.2q46.117 40.128 101.82 62.288 55.699 21.561 122.18 21.561 61.689 0 100.02-26.352 38.331-26.951 38.331-75.464 0-45.518-32.342-71.271-31.743-25.753-118.59-52.106-145.54-44.32-207.23-104.21-61.09-60.491-61.09-155.12 0-76.063 41.924-129.97 42.523-53.903 113.79-82.052 71.271-28.748 156.92-28.748 96.426 0 170.09 28.149 73.667 27.55 127.57 79.057l-92.832 106.61q-41.924-35.336-90.437-52.106-48.512-17.369-98.821-17.369-56.298 0-90.437 20.962-34.138 20.363-34.138 60.491 0 26.352 14.973 44.32 14.973 17.968 52.106 34.138 37.133 15.572 103.01 36.534 78.458 23.957 134.16 57.496 56.298 32.94 85.645 83.25 29.946 50.309 29.946 126.97zm730.08-173.09q0 131.76-37.732 229.98-37.732 97.624-112 152.13-73.667 53.903-182.67 53.903-108.4 0-182.67-52.705-74.266-53.304-112-150.93-37.732-97.624-37.732-232.38 0-131.76 37.732-229.39 37.732-97.624 112-151.53 74.266-54.502 182.67-54.502 109 0 182.67 52.705 74.266 52.705 112 150.33 37.732 97.624 37.732 232.38zm-201.24 0q0-153.32-30.545-222.8-30.545-69.474-100.62-69.474t-100.62 70.073q-30.545 69.474-30.545 222.2 0 153.32 31.144 222.8t100.02 69.474q71.87 0 101.22-70.073 29.946-70.672 29.946-222.2zm646.23 415.65-218.61-667.79q5.3903 35.336 12.577 91.036 7.187 55.1 11.978 122.78 5.3902 67.678 5.3902 140.75v313.23h-167.1v-830.1h244.96l212.02 664.2q-9.5827-56.897-19.764-145.54-10.182-88.64-10.182-200.64v-318.03h167.1v830.1z"/>
    <path d="m3439.3-8196.2q89.239 0 151.53 23.957 62.886 23.358 114.99 66.48l-96.426 116.19q-34.138-28.149-75.464-44.32-41.325-16.77-89.838-16.77-52.106 0-95.228 29.946-43.122 29.347-68.876 93.431-25.754 63.485-25.754 165.3 0 149.73 53.903 218.01 54.502 67.678 139.55 67.678 62.288 0 103.61-23.358 41.325-23.358 76.063-50.908l89.239 113.79q-46.716 46.117-114.99 79.057-68.277 32.94-164.7 32.94-112.6 0-200.04-49.71-86.843-50.309-136.55-147.33-49.111-97.624-49.111-240.17 0-138.95 50.908-235.97 51.507-97.025 139.55-147.33 88.041-50.908 197.64-50.908zm958.27 20.962v552.2q0 85.046-34.737 152.72-34.138 67.079-103.01 106.61-68.277 38.93-171.29 38.93-103.61 0-172.49-37.732-68.277-37.732-102.42-104.81-34.138-67.079-34.138-155.72v-552.2h197.04v479.13q0 112 20.363 168.89 20.363 56.298 91.634 56.298 71.271 0 91.634-56.298 20.363-56.897 20.363-168.89v-479.13zm730.68 587.54q0 77.26-40.726 136.55-40.128 59.293-115.59 92.832t-181.47 33.539q-117.39 0-197.04-34.138-79.057-34.737-131.16-85.645l99.42-110.2q46.117 40.128 101.82 62.288 55.699 21.561 122.18 21.561 61.689 0 100.02-26.352 38.331-26.951 38.331-75.464 0-45.518-32.342-71.271-31.743-25.753-118.59-52.106-145.54-44.32-207.23-104.21-61.09-60.491-61.09-155.12 0-76.063 41.924-129.97 42.523-53.903 113.79-82.052 71.271-28.748 156.92-28.748 96.426 0 170.09 28.149 73.667 27.55 127.57 79.057l-92.832 106.61q-41.924-35.336-90.437-52.106-48.512-17.369-98.822-17.369-56.298 0-90.437 20.962-34.138 20.363-34.138 60.491 0 26.352 14.973 44.32 14.973 17.968 52.106 34.138 37.133 15.572 103.01 36.534 78.458 23.957 134.16 57.496 56.298 32.94 85.645 83.25 29.946 50.309 29.946 126.97zm494.71-437.21v679.77h-196.45v-679.77h-232.98v-150.33h671.99l-20.363 150.33zm954.08 264.12q0 131.76-37.732 229.98-37.732 97.624-112 152.13-73.667 53.903-182.67 53.903-108.4 0-182.67-52.705-74.266-53.304-112-150.93t-37.732-232.38q0-131.76 37.732-229.39 37.732-97.624 112-151.53 74.266-54.502 182.67-54.502 109 0 182.67 52.705 74.266 52.705 112 150.33 37.732 97.624 37.732 232.38zm-201.24 0q0-153.32-30.545-222.8-30.545-69.474-100.62-69.474t-100.62 70.073q-30.545 69.474-30.545 222.2 0 153.32 31.144 222.8 31.144 69.474 100.02 69.474 71.87 0 101.22-70.073 29.946-70.672 29.946-222.2zm-37.732-725.29 71.271 140.75-284.49 100.62-44.919-95.827zm954.08 721.7q0 126.37-33.539 208.42-32.94 82.052-89.838 128.17-56.897 45.518-129.37 64.084-71.87 18.566-149.13 18.566h-224v-830.1h209.62q79.656 0 153.92 16.77 74.865 16.171 133.56 60.491 59.293 43.721 94.03 124.58 34.737 80.255 34.737 209.02zm-203.63 0q0-112-24.556-169.49-23.957-57.496-65.881-77.859-41.325-20.962-93.431-20.962h-41.924v545.61h41.924q54.502 0 95.827-23.358 41.325-23.957 64.683-84.447t23.358-169.49zm863.04-410.86v143.74h-171.29v542.02h171.29v144.34h-539.03v-144.34h171.29v-542.02h-171.29v-143.74zm781.59 414.45q0 131.76-37.732 229.98-37.732 97.624-112 152.13-73.667 53.903-182.67 53.903-108.4 0-182.67-52.705-74.266-53.304-112-150.93t-37.732-232.38q0-131.76 37.732-229.39 37.732-97.624 112-151.53 74.266-54.502 182.67-54.502 109 0 182.67 52.705 74.266 52.705 112 150.33 37.732 97.624 37.732 232.38zm-201.24 0q0-153.32-30.545-222.8-30.545-69.474-100.62-69.474t-100.62 70.073q-30.545 69.474-30.545 222.2 0 153.32 31.144 222.8 31.144 69.474 100.02 69.474 71.87 0 101.22-70.073 29.946-70.672 29.946-222.2z"/>
   </g>
  </g>
 </g>
</svg>
